<?xml version="1.0" encoding="utf-8"?>
<!-- Generator: Adobe Illustrator 15.0.0, SVG Export Plug-In . SVG Version: 6.00 Build 0)  -->
<!DOCTYPE svg PUBLIC "-//W3C//DTD SVG 1.1//EN" "http://www.w3.org/Graphics/SVG/1.1/DTD/svg11.dtd">
<svg version="1.1" id="Layer_1" xmlns="http://www.w3.org/2000/svg" xmlns:xlink="http://www.w3.org/1999/xlink" x="0px" y="0px"
	 width="20px" height="20px" viewBox="0 0 20 20" enable-background="new 0 0 20 20" xml:space="preserve">
<g>
	<g>
		<path fill="#003454" d="M11.475,7.032c0.51,0,1.018,0,1.525,0c0,0.509,0,1.017,0,1.525c-0.509,0-1.018,0-1.525,0
			C11.475,8.049,11.475,7.541,11.475,7.032z"/>
		<path fill="#003454" d="M1,3.981c0-0.983,0-1.966,0-2.949c1.018,0,2.033,0,3.051,0c0,0.509,0,1.017,0,1.525
			c0.509,0,1.018,0,1.525,0c0-0.509,0-1.017,0-1.525c0.475,0,0.949,0,1.424,0c0.047,0.496-0.106,1.191,0.102,1.525
			c0.475,0,0.949,0,1.424,0c0,0.475,0,0.949,0,1.424c0.299,0.277,1.233-0.08,1.525,0.203c0,2.949,0,5.898,0,8.848
			c0.431,0.054,1.204-0.077,1.322,0c-0.253,0.606-1.108,0.745-1.322,1.524c-0.206,0.752,0.147,1.689,0,2.746
			c0.672-0.46,1.399-1.195,2.237-2.033c0.589-0.59,1.927-1.576,2.136-2.34c0.254-0.922-0.27-1.861,0.102-2.949
			c0.476,0,0.949,0,1.425,0c0-0.983,0-1.966,0-2.949c-0.509,0-1.017,0-1.525,0c0-0.509,0-1.017,0-1.525c-0.475,0-0.948,0-1.424,0
			c0-0.475,0-0.949,0-1.424c-0.509,0-1.017,0-1.524,0c0.064-0.477-0.134-1.218,0.102-1.525c0.475,0,0.949,0,1.424,0
			c0-0.509,0-1.017,0-1.525c0.475,0,0.949,0,1.424,0c0.268,0.349-0.029,1.313,0.102,1.525c0.476,0,0.949,0,1.425,0
			c0-0.509,0-1.017,0-1.525c1.017,0,2.034,0,3.051,0c0,0.983,0,1.966,0,2.949c-0.334,0.208-1.03,0.055-1.524,0.102
			c0,0.475,0,0.949,0,1.424C17.971,5.554,18.666,5.4,19,5.608c0,0.475,0,0.949,0,1.424c-0.509,0-1.018,0-1.525,0c0,2,0,4,0,6
			c0.51,0,1.018,0,1.525,0c0,0.475,0,0.948,0,1.424c-0.509,0-1.018,0-1.525,0c0,0.509,0,1.019,0,1.524c0.51,0,1.018,0,1.525,0
			c0,0.983,0,1.967,0,2.949c-1.018,0-2.034,0-3.051,0c0-0.475,0-0.949,0-1.424c-0.475,0-0.949,0-1.424,0c0,0.475,0,0.949,0,1.424
			c-0.478-0.064-1.219,0.133-1.525-0.102c0-0.439,0-0.883,0-1.322c-2,0-4,0-6,0c0,0.475,0,0.949,0,1.424
			c-0.442-0.064-1.149,0.133-1.424-0.102c0-0.439,0-0.883,0-1.322c-0.508,0-1.017,0-1.525,0C4.819,19.656,2.477,18.74,1,18.93
			c0-0.949,0-1.898,0-2.848c0.334-0.208,1.029-0.055,1.525-0.102c0-0.508,0-1.018,0-1.525c-0.508,0-1.018,0-1.525,0
			c0-0.475,0-0.949,0-1.424c0.508,0,1.018,0,1.525,0c0-2,0-4,0-6C2.029,6.985,1.334,7.139,1,6.931c0-0.44,0-0.882,0-1.322
			C1.334,5.4,2.029,5.554,2.525,5.507c0-0.475,0-0.949,0-1.424C2.029,4.036,1.334,4.189,1,3.981z M7.102,8.456
			C7.57,8.008,8.125,7.649,8.424,7.032c-0.915,0-1.831,0-2.746,0C6.025,7.634,6.5,8.108,7.102,8.456z"/>
	</g>
</g>
</svg>
